<?xml version="1.0" standalone="no"?>
<!DOCTYPE svg PUBLIC "-//W3C//DTD SVG 20010904//EN"
 "http://www.w3.org/TR/2001/REC-SVG-20010904/DTD/svg10.dtd">
<svg version="1.0" xmlns="http://www.w3.org/2000/svg"
 width="823.000000pt" height="823.000000pt" viewBox="0 0 823.000000 823.000000"
 preserveAspectRatio="xMidYMid meet">
<metadata>
Created by potrace 1.14, written by Peter Selinger 2001-2017
</metadata>
<g transform="translate(0.000000,823.000000) scale(0.100000,-0.100000)"
fill="#000000" stroke="none">
<path d="M4037 7963 c-3 -2 -200 -12 -256 -12 -50 -1 -50 -10 0 -16 19 -2 59
-6 89 -10 171 -18 401 -103 570 -209 72 -44 191 -129 230 -162 14 -12 48 -41
75 -64 107 -91 298 -283 525 -530 211 -228 414 -428 552 -540 40 -33 79 -65
85 -70 34 -28 225 -150 275 -175 42 -22 54 -33 47 -42 -11 -12 -260 -161 -380
-226 -366 -199 -847 -393 -1144 -463 -5 -1 -59 -13 -120 -27 -104 -24 -130
-29 -222 -43 -21 -3 -49 -7 -63 -9 -38 -6 -135 -17 -188 -21 -64 -5 -382 -5
-407 0 -11 2 -53 7 -94 10 -41 4 -77 9 -80 10 -3 2 -28 7 -56 10 -148 20 -500
135 -556 183 -8 7 -20 13 -25 13 -6 0 -41 19 -80 42 -276 165 -507 407 -648
678 -143 276 -206 545 -202 872 2 155 2 156 -18 146 -18 -10 -120 -81 -151
-105 -6 -4 -37 -28 -70 -52 -33 -25 -62 -47 -65 -50 -3 -3 -25 -22 -50 -41
-115 -89 -372 -341 -488 -480 -289 -341 -497 -688 -663 -1102 -32 -81 -59
-154 -59 -161 0 -8 -3 -17 -8 -21 -4 -4 -7 -11 -7 -14 -1 -4 -11 -36 -22 -72
-43 -127 -110 -405 -129 -530 -3 -19 -7 -46 -9 -60 -59 -352 -61 -815 -3
-1180 5 -36 11 -74 12 -85 20 -150 129 -556 193 -715 4 -8 7 -17 8 -20 37
-108 165 -379 256 -541 113 -202 280 -439 437 -624 94 -110 356 -375 370 -375
11 0 81 167 110 261 33 109 50 279 28 279 -7 0 -48 -30 -92 -66 -165 -138
-251 -148 -361 -41 l-43 41 0 429 c0 474 -4 443 68 473 75 30 83 69 32 159
-19 32 -32 74 -36 107 -6 51 -4 56 21 76 15 12 46 27 69 34 22 6 48 18 57 25
9 8 29 16 44 19 16 3 37 10 48 15 29 16 80 2 109 -29 82 -88 90 -251 17 -352
-27 -37 -28 -42 -18 -82 10 -38 8 -58 -20 -170 -35 -142 -49 -262 -32 -272 6
-4 24 0 40 8 22 12 36 35 65 107 20 50 48 107 62 125 22 28 60 125 52 131 -2
1 5 11 14 22 20 23 73 39 141 42 26 2 47 5 47 9 0 3 14 21 31 39 34 38 34 40
-16 109 -25 35 -45 53 -66 57 -35 8 -49 35 -40 80 10 46 10 48 -49 138 l-55
85 -45 -1 c-120 -1 -130 10 -37 39 49 17 62 25 60 40 -1 10 -5 39 -8 62 -7 61
10 116 48 152 51 49 201 118 292 136 168 31 240 -3 317 -152 l33 -64 75 6 75
5 -25 -21 c-14 -11 -45 -25 -68 -31 l-44 -12 7 -51 c3 -28 8 -73 11 -101 3
-27 11 -81 17 -120 l12 -70 71 0 c82 0 104 -13 121 -69 9 -28 8 -39 -4 -56 -8
-12 -13 -23 -12 -25 16 -15 138 -65 171 -70 24 -4 67 -20 97 -37 29 -16 59
-27 66 -24 11 4 18 26 30 101 2 11 6 64 10 118 5 94 18 142 47 178 7 9 63 46
125 83 61 36 117 71 125 78 14 14 96 69 167 113 64 39 177 95 194 95 8 0 22
18 32 41 20 44 59 78 116 102 31 13 38 22 51 68 20 72 18 86 -27 182 -21 45
-43 93 -49 107 -27 65 -50 69 -174 27 -75 -25 -162 -31 -169 -10 -8 22 65 88
142 128 90 47 89 40 32 200 -20 55 -38 123 -41 150 -5 52 -17 149 -21 175 -4
28 17 83 38 101 23 19 78 34 144 38 7 1 25 16 40 33 97 113 192 169 281 164
60 -4 92 -28 140 -103 15 -24 49 -56 80 -75 29 -18 79 -50 110 -70 31 -21 63
-38 70 -38 15 0 126 55 163 81 15 10 39 23 54 29 26 10 27 10 20 -22 -12 -51
-56 -119 -123 -187 -76 -76 -88 -127 -52 -228 11 -32 20 -75 20 -96 0 -62 -48
-229 -71 -244 -17 -13 -19 -24 -15 -101 2 -48 7 -94 11 -103 3 -9 26 -26 49
-39 34 -17 50 -34 70 -75 14 -30 39 -61 55 -71 17 -11 99 -71 183 -135 209
-158 290 -210 378 -243 173 -63 176 -67 184 -217 2 -41 9 -87 15 -102 6 -15
13 -42 16 -60 16 -103 28 -158 39 -172 10 -15 16 -14 57 9 38 21 55 25 111 22
112 -6 181 32 198 110 13 56 2 99 -38 152 -32 42 -36 53 -35 104 l1 56 -57 22
c-111 41 -149 79 -98 97 12 4 63 8 112 8 l90 0 31 90 c18 50 31 92 29 95 -1 3
10 28 24 55 44 84 110 102 231 61 25 -8 59 -17 75 -20 113 -20 141 -29 163
-49 37 -34 53 -84 58 -177 10 -194 13 -223 26 -235 7 -7 39 -22 71 -35 32 -12
64 -31 71 -42 16 -22 10 -57 -10 -59 -8 -1 -24 -2 -36 -3 -13 -1 -43 4 -68 11
-50 14 -90 17 -91 6 -6 -61 -38 -149 -68 -192 -25 -36 -45 -95 -38 -114 3 -8
39 -33 80 -56 61 -33 87 -42 141 -45 42 -3 76 -11 93 -23 32 -22 55 -32 137
-64 62 -24 111 -66 138 -121 111 -223 134 -287 153 -428 3 -25 20 -75 36 -111
23 -48 29 -76 26 -106 -2 -23 1 -51 8 -62 10 -21 19 -13 122 116 301 377 525
786 673 1233 40 120 113 397 125 470 3 19 10 58 15 85 16 83 20 107 26 170 3
33 7 65 9 72 11 34 20 235 20 448 0 322 -10 437 -71 778 -13 78 -97 384 -133
488 -116 335 -267 638 -464 934 -33 50 -64 92 -69 93 -4 2 -8 8 -8 14 0 5 -46
66 -101 135 -56 70 -106 133 -113 141 -20 25 -330 337 -371 373 -35 30 -202
166 -230 187 -6 4 -26 19 -45 33 -464 341 -1021 582 -1605 693 -143 27 -189
33 -360 51 -92 9 -443 24 -448 18z"/>
<path d="M2725 7709 c-187 -79 -264 -113 -331 -144 l-82 -39 19 -68 c11 -38
23 -76 28 -86 5 -9 19 -39 31 -67 192 -439 767 -867 1470 -1093 85 -28 194
-58 243 -68 10 -2 26 -5 35 -8 9 -3 28 -7 42 -10 14 -3 48 -9 75 -15 28 -5 70
-12 95 -16 25 -3 52 -8 60 -10 82 -22 508 -26 625 -7 123 20 138 24 210 47 58
19 65 23 40 26 -59 5 -82 8 -185 24 -58 10 -115 19 -127 20 -12 2 -34 6 -50 9
-15 4 -41 9 -58 11 -118 20 -421 95 -585 145 -545 168 -985 408 -1268 692
-113 114 -169 188 -222 293 -68 135 -88 253 -56 330 19 44 18 46 -9 34z"/>
<path d="M4395 3441 c-16 -21 -71 -71 -122 -112 -109 -86 -113 -98 -50 -159
70 -70 71 -70 117 10 44 76 125 241 135 278 6 19 3 22 -22 22 -22 0 -36 -9
-58 -39z"/>
<path d="M3925 3280 c14 -63 40 -134 51 -137 11 -4 64 68 64 85 0 5 -21 22
-47 39 -79 50 -76 49 -68 13z"/>
<path d="M4048 3142 c-29 -25 -37 -52 -15 -52 8 0 24 -11 37 -25 18 -20 22
-31 17 -62 -4 -21 -9 -63 -13 -93 -3 -30 -13 -100 -23 -155 -33 -197 -15 -490
36 -589 l15 -30 17 35 c81 166 223 530 223 569 -1 45 -13 76 -62 159 -38 63
-40 72 -34 120 5 44 3 57 -17 86 -25 37 -86 67 -128 63 -14 -2 -37 -13 -53
-26z"/>
<path d="M4504 2674 c-51 -25 -67 -90 -44 -175 12 -41 57 -68 131 -76 46 -5
118 21 134 47 10 17 -2 52 -27 82 -13 14 -43 51 -68 82 -49 60 -71 67 -126 40z"/>
<path d="M2251 2536 c-63 -27 -90 -55 -66 -68 25 -14 61 2 106 48 49 50 39 54
-40 20z"/>
<path d="M5830 2555 c0 -8 59 -138 81 -180 61 -112 119 -179 119 -136 0 10
-16 31 -35 45 l-35 27 15 37 c9 20 22 44 30 52 27 30 28 29 -147 142 -16 10
-28 16 -28 13z"/>
<path d="M6152 2451 l-74 -27 27 -32 c25 -30 26 -37 20 -90 -5 -47 -3 -61 9
-71 13 -11 17 -11 21 0 23 66 76 241 73 244 -1 1 -36 -9 -76 -24z"/>
<path d="M2090 2452 c-19 -16 -23 -29 -25 -98 -3 -71 -24 -162 -45 -189 -55
-74 -100 -203 -96 -281 3 -56 28 -124 46 -124 12 0 27 22 33 50 33 160 74 313
99 372 54 130 62 174 44 256 -9 36 -24 40 -56 14z"/>
</g>
</svg>
